<mxfile host="app.diagrams.net" modified="2021-08-31T03:07:56.275Z" agent="5.0 (Windows NT 10.0; Win64; x64) AppleWebKit/537.36 (KHTML, like Gecko) Chrome/92.0.4515.131 Safari/537.36 OPR/78.0.4093.153" etag="IzNoLaN_Z_Dbe-uvUDF9" version="14.9.6" type="github" pages="2">
  <diagram id="mvCorZ3PPigmL-OjwaV1" name="Page-1">
    <mxGraphModel dx="997" dy="580" grid="1" gridSize="10" guides="1" tooltips="1" connect="1" arrows="1" fold="1" page="1" pageScale="1" pageWidth="850" pageHeight="1100" math="0" shadow="0">
      <root>
        <mxCell id="0" />
        <mxCell id="1" parent="0" />
        <mxCell id="YD7k5SHszO6ihIN2rB_u-3" value="" style="edgeStyle=orthogonalEdgeStyle;rounded=0;orthogonalLoop=1;jettySize=auto;html=1;" parent="1" source="YD7k5SHszO6ihIN2rB_u-1" target="YD7k5SHszO6ihIN2rB_u-2" edge="1">
          <mxGeometry relative="1" as="geometry" />
        </mxCell>
        <mxCell id="YD7k5SHszO6ihIN2rB_u-1" value="Data ingestion" style="rounded=1;whiteSpace=wrap;html=1;fillColor=#dae8fc;strokeColor=#6c8ebf;" parent="1" vertex="1">
          <mxGeometry x="210" y="160" width="120" height="60" as="geometry" />
        </mxCell>
        <mxCell id="YD7k5SHszO6ihIN2rB_u-5" value="" style="edgeStyle=orthogonalEdgeStyle;rounded=0;orthogonalLoop=1;jettySize=auto;html=1;" parent="1" source="YD7k5SHszO6ihIN2rB_u-2" target="YD7k5SHszO6ihIN2rB_u-4" edge="1">
          <mxGeometry relative="1" as="geometry" />
        </mxCell>
        <mxCell id="YD7k5SHszO6ihIN2rB_u-2" value="Data validation" style="rounded=1;whiteSpace=wrap;html=1;fillColor=#dae8fc;strokeColor=#6c8ebf;" parent="1" vertex="1">
          <mxGeometry x="410" y="160" width="120" height="60" as="geometry" />
        </mxCell>
        <mxCell id="YD7k5SHszO6ihIN2rB_u-7" value="" style="edgeStyle=orthogonalEdgeStyle;rounded=0;orthogonalLoop=1;jettySize=auto;html=1;" parent="1" source="YD7k5SHszO6ihIN2rB_u-4" target="YD7k5SHszO6ihIN2rB_u-6" edge="1">
          <mxGeometry relative="1" as="geometry" />
        </mxCell>
        <mxCell id="YD7k5SHszO6ihIN2rB_u-4" value="Data preprocessing" style="rounded=1;whiteSpace=wrap;html=1;fillColor=#dae8fc;strokeColor=#6c8ebf;" parent="1" vertex="1">
          <mxGeometry x="610" y="160" width="120" height="60" as="geometry" />
        </mxCell>
        <mxCell id="YD7k5SHszO6ihIN2rB_u-9" value="" style="edgeStyle=orthogonalEdgeStyle;rounded=0;orthogonalLoop=1;jettySize=auto;html=1;" parent="1" source="YD7k5SHszO6ihIN2rB_u-6" target="YD7k5SHszO6ihIN2rB_u-8" edge="1">
          <mxGeometry relative="1" as="geometry" />
        </mxCell>
        <mxCell id="YD7k5SHszO6ihIN2rB_u-6" value="Model training" style="rounded=1;whiteSpace=wrap;html=1;fillColor=#dae8fc;strokeColor=#6c8ebf;" parent="1" vertex="1">
          <mxGeometry x="810" y="160" width="120" height="60" as="geometry" />
        </mxCell>
        <mxCell id="YD7k5SHszO6ihIN2rB_u-11" value="" style="edgeStyle=orthogonalEdgeStyle;rounded=0;orthogonalLoop=1;jettySize=auto;html=1;" parent="1" source="YD7k5SHszO6ihIN2rB_u-8" target="YD7k5SHszO6ihIN2rB_u-10" edge="1">
          <mxGeometry relative="1" as="geometry" />
        </mxCell>
        <mxCell id="YD7k5SHszO6ihIN2rB_u-8" value="Model analysis&lt;br&gt;and validation" style="rounded=1;whiteSpace=wrap;html=1;fillColor=#dae8fc;strokeColor=#6c8ebf;" parent="1" vertex="1">
          <mxGeometry x="1010" y="160" width="120" height="60" as="geometry" />
        </mxCell>
        <mxCell id="YD7k5SHszO6ihIN2rB_u-10" value="Model deployment" style="rounded=1;whiteSpace=wrap;html=1;fillColor=#dae8fc;strokeColor=#6c8ebf;" parent="1" vertex="1">
          <mxGeometry x="1210" y="160" width="120" height="60" as="geometry" />
        </mxCell>
        <mxCell id="YD7k5SHszO6ihIN2rB_u-12" value="ExampleGen" style="rounded=0;whiteSpace=wrap;html=1;" parent="1" vertex="1">
          <mxGeometry x="210" y="260" width="120" height="60" as="geometry" />
        </mxCell>
        <mxCell id="YD7k5SHszO6ihIN2rB_u-13" value="&lt;font style=&quot;font-size: 22px&quot;&gt;TFX Components&lt;/font&gt;" style="text;html=1;strokeColor=none;fillColor=none;align=center;verticalAlign=middle;whiteSpace=wrap;rounded=0;rotation=-90;" parent="1" vertex="1">
          <mxGeometry x="70" y="390" width="180" height="20" as="geometry" />
        </mxCell>
        <mxCell id="YD7k5SHszO6ihIN2rB_u-14" value="StatisticsGen" style="rounded=0;whiteSpace=wrap;html=1;" parent="1" vertex="1">
          <mxGeometry x="410" y="260" width="120" height="60" as="geometry" />
        </mxCell>
        <mxCell id="YD7k5SHszO6ihIN2rB_u-15" value="SchemaGen" style="rounded=0;whiteSpace=wrap;html=1;" parent="1" vertex="1">
          <mxGeometry x="410" y="360" width="120" height="60" as="geometry" />
        </mxCell>
        <mxCell id="YD7k5SHszO6ihIN2rB_u-16" value="Example validator" style="rounded=0;whiteSpace=wrap;html=1;" parent="1" vertex="1">
          <mxGeometry x="410" y="460" width="120" height="60" as="geometry" />
        </mxCell>
        <mxCell id="YD7k5SHszO6ihIN2rB_u-17" value="Transform" style="rounded=0;whiteSpace=wrap;html=1;" parent="1" vertex="1">
          <mxGeometry x="610" y="260" width="120" height="60" as="geometry" />
        </mxCell>
        <mxCell id="YD7k5SHszO6ihIN2rB_u-18" value="Trainer" style="rounded=0;whiteSpace=wrap;html=1;" parent="1" vertex="1">
          <mxGeometry x="810" y="260" width="120" height="60" as="geometry" />
        </mxCell>
        <mxCell id="YD7k5SHszO6ihIN2rB_u-19" value="Evaluator" style="rounded=0;whiteSpace=wrap;html=1;" parent="1" vertex="1">
          <mxGeometry x="1010" y="260" width="120" height="60" as="geometry" />
        </mxCell>
        <mxCell id="YD7k5SHszO6ihIN2rB_u-20" value="ResolverNode" style="rounded=0;whiteSpace=wrap;html=1;" parent="1" vertex="1">
          <mxGeometry x="1010" y="360" width="120" height="60" as="geometry" />
        </mxCell>
        <mxCell id="YD7k5SHszO6ihIN2rB_u-21" value="Pusher" style="rounded=0;whiteSpace=wrap;html=1;" parent="1" vertex="1">
          <mxGeometry x="1010" y="460" width="120" height="60" as="geometry" />
        </mxCell>
        <mxCell id="YD7k5SHszO6ihIN2rB_u-22" value="Model Server" style="rounded=0;whiteSpace=wrap;html=1;" parent="1" vertex="1">
          <mxGeometry x="1210" y="260" width="120" height="60" as="geometry" />
        </mxCell>
        <mxCell id="YD7k5SHszO6ihIN2rB_u-23" value="TensorFlow&lt;br&gt;Data validation" style="rounded=1;whiteSpace=wrap;html=1;fillColor=#fff2cc;strokeColor=#d6b656;" parent="1" vertex="1">
          <mxGeometry x="410" y="560" width="120" height="60" as="geometry" />
        </mxCell>
        <mxCell id="YD7k5SHszO6ihIN2rB_u-24" value="TensorFlow&lt;br&gt;Transform" style="rounded=1;whiteSpace=wrap;html=1;fillColor=#fff2cc;strokeColor=#d6b656;" parent="1" vertex="1">
          <mxGeometry x="610" y="560" width="120" height="60" as="geometry" />
        </mxCell>
        <mxCell id="YD7k5SHszO6ihIN2rB_u-25" value="TensorFlow&lt;br&gt;Model Analysis" style="rounded=1;whiteSpace=wrap;html=1;fillColor=#fff2cc;strokeColor=#d6b656;" parent="1" vertex="1">
          <mxGeometry x="1010" y="560" width="120" height="60" as="geometry" />
        </mxCell>
        <mxCell id="YD7k5SHszO6ihIN2rB_u-26" value="TensorFlow&lt;br&gt;Serving" style="rounded=1;whiteSpace=wrap;html=1;fillColor=#fff2cc;strokeColor=#d6b656;" parent="1" vertex="1">
          <mxGeometry x="1210" y="560" width="120" height="60" as="geometry" />
        </mxCell>
        <mxCell id="YD7k5SHszO6ihIN2rB_u-27" value="&lt;font style=&quot;font-size: 22px&quot;&gt;Libraries&lt;/font&gt;" style="text;html=1;strokeColor=none;fillColor=none;align=center;verticalAlign=middle;whiteSpace=wrap;rounded=0;rotation=-90;" parent="1" vertex="1">
          <mxGeometry x="70" y="570" width="180" height="20" as="geometry" />
        </mxCell>
      </root>
    </mxGraphModel>
  </diagram>
  <diagram id="aWEsBwOqJsrXs_5LMnLG" name="Page-2">
    <mxGraphModel dx="997" dy="580" grid="1" gridSize="10" guides="1" tooltips="1" connect="1" arrows="1" fold="1" page="1" pageScale="1" pageWidth="850" pageHeight="1100" math="0" shadow="0">
      <root>
        <mxCell id="Dpl-dHb1uibwoM_3GQUS-0" />
        <mxCell id="Dpl-dHb1uibwoM_3GQUS-1" parent="Dpl-dHb1uibwoM_3GQUS-0" />
        <mxCell id="Dpl-dHb1uibwoM_3GQUS-6" value="TrainingData" style="swimlane;fontStyle=1;align=center;verticalAlign=top;childLayout=stackLayout;horizontal=1;startSize=26;horizontalStack=0;resizeParent=1;resizeParentMax=0;resizeLast=0;collapsible=1;marginBottom=0;" vertex="1" parent="Dpl-dHb1uibwoM_3GQUS-1">
          <mxGeometry x="360" y="190" width="160" height="112" as="geometry" />
        </mxCell>
        <mxCell id="Dpl-dHb1uibwoM_3GQUS-7" value="+ name: str&#xa;+ uploaded: datetime.datetime&#xa;+ tested: datetime.datetime" style="text;strokeColor=none;fillColor=none;align=left;verticalAlign=top;spacingLeft=4;spacingRight=4;overflow=hidden;rotatable=0;points=[[0,0.5],[1,0.5]];portConstraint=eastwest;" vertex="1" parent="Dpl-dHb1uibwoM_3GQUS-6">
          <mxGeometry y="26" width="160" height="44" as="geometry" />
        </mxCell>
        <mxCell id="Dpl-dHb1uibwoM_3GQUS-8" value="" style="line;strokeWidth=1;fillColor=none;align=left;verticalAlign=middle;spacingTop=-1;spacingLeft=3;spacingRight=3;rotatable=0;labelPosition=right;points=[];portConstraint=eastwest;" vertex="1" parent="Dpl-dHb1uibwoM_3GQUS-6">
          <mxGeometry y="70" width="160" height="8" as="geometry" />
        </mxCell>
        <mxCell id="Dpl-dHb1uibwoM_3GQUS-9" value="+ load(source: Iterable)" style="text;strokeColor=none;fillColor=none;align=left;verticalAlign=top;spacingLeft=4;spacingRight=4;overflow=hidden;rotatable=0;points=[[0,0.5],[1,0.5]];portConstraint=eastwest;" vertex="1" parent="Dpl-dHb1uibwoM_3GQUS-6">
          <mxGeometry y="78" width="160" height="34" as="geometry" />
        </mxCell>
      </root>
    </mxGraphModel>
  </diagram>
</mxfile>
